<svg width="118" height="199" viewBox="0 0 118 199" fill="none" xmlns="http://www.w3.org/2000/svg">
<path d="M44.297 196.083C51.801 180.007 58.7484 163.714 66.252 147.639C67.6739 144.613 64.014 141.939 61.3191 144.329C55.8497 148.525 50.7775 152.739 45.3081 156.936C46.801 150.631 50.9199 146.181 56.1487 141.202C58.208 138.977 60.1867 136.169 59.1471 133.421C57.627 129.105 50.5566 128.404 46.3448 127.443C35.6166 125.034 24.4149 123.954 14.1599 120.214C2.47313 115.638 9.44778 109.965 18.7294 105.745C28.4866 101.161 39.3593 97.9787 49.5995 95.9261C67.5401 92.4797 86.7534 89.6697 103.169 79.9768C112.288 74.5921 122.023 61.3191 114.536 52.8757C105.455 42.4311 86.0629 37.3175 70.9735 37.609C63.0303 37.2544 9.19369 41.8008 27.8916 23.9083C41.5981 10.8127 68.1952 7.17368 85.5009 3.89203C87.8029 3.41563 87.8739 0.136686 85.6504 0.230463C68.0217 1.1809 48.5758 6.10458 31.8391 14.4313C22.8762 19.0508 10.1233 32.3821 20.8638 39.619C33.3548 48.0924 54.2324 44.0049 69.9568 43.5487C79.8833 43.0266 90.2167 46.384 98.8022 49.4702C117.086 56.0786 109.818 71.0062 93.4755 78.3853C73.4048 87.3358 51.4854 87.7078 30.9311 94.1269C23.6303 96.5038 -1.13014 103.893 0.328372 115.349C2.03004 128.554 25.1464 130.165 36.1904 132.009C35.6339 131.792 54.3052 134.556 52.6427 136.799C50.9806 139.041 48.3652 141.048 46.3061 143.273C42.4251 147.54 40.1328 151.879 39.3513 156.67C36.5613 152.684 33.2957 149.063 29.5545 145.807C27.4854 144.17 23.759 146.707 23.8449 149.221C25.3186 166.469 33.615 180.74 38.342 196.783C38.8247 199.314 43.1125 198.926 44.297 196.083ZM39.2139 165.159C40.17 166.36 41.6777 165.848 42.4696 164.918C43.4232 165.154 44.4554 165.007 45.4066 164.277C48.498 161.905 51.8272 159.351 54.9186 156.979C50.4961 166.821 46.311 176.481 41.8886 186.323C38.4488 176.709 34.1363 167.442 31.9671 157.499C34.2763 159.919 36.7451 162.539 39.2139 165.159Z" fill="black"/>
</svg>
