<svg width="114" height="194" viewBox="0 0 114 194" fill="none" xmlns="http://www.w3.org/2000/svg">
<path d="M113.054 189.426C111.085 172.176 108.512 154.979 106.543 137.73C106.181 134.48 101.545 133.744 100.451 136.994C97.8839 143.022 95.6744 148.893 93.1069 154.921C91.062 148.786 92.3092 143.124 94.2489 136.519C94.8724 133.689 95.1149 130.385 92.7395 128.445C89.1086 125.351 82.529 127.812 78.321 128.806C67.6218 131.371 57.2152 135.299 46.2233 136.5C33.5297 137.596 36.6322 129.629 42.5338 121.924C48.6586 113.696 56.5083 106.202 64.4043 99.9662C78.3177 89.172 93.6867 78.3785 102.937 62.8112C108.076 54.1629 109.557 38.3829 98.4912 34.2889C84.9621 29.1457 65.2188 33.122 52.1291 39.9321C44.9682 43.0748 0.132293 70.4234 7.02208 46.7292C12.0836 29.3779 33.4927 14.6547 46.9364 4.27962C48.7034 2.86482 47.0207 -0.019357 45.1189 1.02841C30.151 9.51521 15.7027 22.2491 5.44335 36.7672C0.0346116 44.6814 -4.06438 61.8234 9.21467 63.4541C24.6883 65.4002 40.8384 52.7719 54.3978 45.5425C62.8329 40.7751 73.69 39.2067 82.8685 38.1619C102.434 35.968 103.999 52.1161 93.5816 65.638C80.7279 82.1475 61.6859 91.9954 47.0604 106.512C41.9172 111.753 24.1159 128.941 31.4932 138.277C40.0143 149.028 61.1623 140.385 71.8381 137.192C71.2336 137.244 89.0937 131.537 88.8281 134.211C88.5626 136.885 87.3349 139.767 86.7118 142.598C85.576 147.998 85.8731 152.769 87.737 157.278C83.1668 155.022 78.3733 153.29 73.3566 152.082C70.6692 151.557 68.7483 155.383 70.1614 157.533C80.6348 171.903 95.5122 180.716 108.199 192.622C109.97 194.615 113.527 192.415 113.054 189.426ZM92.134 164.725C93.6125 165.354 94.6635 164.254 94.8636 163.1C95.8261 162.891 96.6538 162.315 97.1003 161.266C98.5516 157.859 100.114 154.19 101.566 150.783C102.922 161.269 104.389 171.493 105.745 181.979C97.6094 175.108 88.8924 168.918 81.6966 161.208C85.0112 162.31 88.5726 163.517 92.134 164.725Z" fill="black"/>
</svg>
