<svg width="158" height="169" viewBox="0 0 158 169" fill="none" xmlns="http://www.w3.org/2000/svg">
<path d="M6.35962 168.288C22.3099 158.432 37.8947 148.061 53.8445 138.206C56.8549 136.356 55.1706 131.872 51.404 132.421C44.1381 132.959 37.213 133.742 29.9471 134.28C34.9212 129.574 41.1407 128.03 48.6476 126.661C51.7571 125.889 55.1335 124.554 55.8082 121.523C56.9666 116.828 51.1255 112.109 47.9603 108.819C39.8769 100.47 30.6037 93.0231 23.7096 83.7731C16.0351 72.9543 25.4875 71.9839 36.1354 73.6361C47.4151 75.2417 58.8682 78.7321 69.1072 82.8546C86.9589 90.2095 105.566 98.8644 125.691 99.8151C136.872 100.343 153.169 94.2578 151.447 82.4559C149.478 67.9621 135.305 52.2013 121.802 43.7115C114.988 38.7933 64.7782 11.6013 91.6736 6.6294C111.378 3.00281 136.991 15.2057 154.186 22.338C156.496 23.2515 158.46 20.3951 156.44 19.189C140.311 9.80936 120.273 2.88739 100.656 0.543125C90.0576 -0.570579 71.0598 3.81709 76.3557 16.4386C82.4816 31.1676 103.3 39.6585 117.46 48.3709C126.535 53.664 133.72 62.6213 139.518 70.3256C151.844 86.7648 136.767 95.7424 118.048 92.7894C95.1235 89.0637 75.5379 76.6855 53.6532 70.4424C45.8237 68.3105 19.6599 60.4862 14.3074 71.4554C8.15639 84.1104 27.65 98.9349 36.3399 106.968C35.9745 106.452 50.8715 119.719 48.1021 120.737C45.3333 121.756 41.8588 122.013 38.7493 122.785C32.8462 124.306 28.3053 126.811 24.837 130.592C24.6822 125.453 23.8956 120.36 22.4772 115.314C21.5976 112.668 16.8342 112.749 15.4529 115.02C6.756 131.117 5.81429 148.537 0.691465 165.454C-0.349236 167.971 3.66459 170.114 6.35962 168.288ZM19.7948 138.014C19.9434 139.629 21.5725 140.051 22.8113 139.688C23.5175 140.449 24.5147 140.918 25.7784 140.824C29.8852 140.521 34.3078 140.193 38.4146 139.89C28.8011 146.023 19.5029 152.133 9.88942 158.266C12.423 147.777 13.9841 137.088 17.8313 127.044C18.4693 130.521 19.132 134.267 19.7948 138.014Z" fill="black"/>
</svg>
